<svg version="1.1" id="Layer_1" xmlns="http://www.w3.org/2000/svg" xmlns:xlink="http://www.w3.org/1999/xlink" x="0px" y="0px"
	 width="100%" viewBox="0 0 360 347" enable-background="new 0 0 360 347" xml:space="preserve">
<path fill="#F1CDB3" opacity="1.000000" stroke="none" 
	d="
M278.279755,347.779175 
	C273.310760,348.000000 268.621490,348.000000 263.466125,348.000000 
	C261.185303,347.470001 259.398834,346.596283 257.231384,347.772736 
	C257.000000,348.000000 256.500000,348.000000 256.250000,348.000000 
	C254.371323,346.920746 252.889343,345.589264 250.615814,344.951935 
	C247.306747,343.393829 244.186279,342.292145 240.715790,341.081543 
	C235.977707,339.175476 231.663055,337.185791 226.732941,335.709320 
	C216.501678,330.860870 205.988235,328.061798 195.201355,327.562683 
	C184.776794,327.080353 174.412338,328.995087 164.371628,332.164459 
	C156.138687,334.763245 148.060120,337.796783 139.564056,340.870300 
	C128.070007,345.229034 116.718262,348.207336 104.340225,347.768921 
	C103.555557,348.000000 103.111107,348.000000 102.333328,348.000000 
	C94.588280,347.078400 87.456207,345.417114 81.321091,340.098419 
	C79.827934,339.014008 78.814690,337.953949 77.616287,336.562683 
	C76.049461,334.242462 74.492943,332.366272 72.870682,330.063965 
	C67.308952,320.883881 66.454460,311.316437 68.587776,301.428833 
	C71.886398,286.140167 76.603821,271.309570 83.778214,256.929138 
	C88.357658,249.021423 92.413483,241.241287 97.479248,233.664154 
	C98.055588,232.849991 98.466446,232.334625 98.983215,231.505493 
	C99.257271,231.053391 99.369118,230.874710 99.658195,230.436249 
	C100.196617,229.666794 100.568344,229.164307 101.048447,228.350983 
	C101.321213,227.889267 101.435547,227.704300 101.735916,227.244751 
	C103.358307,224.883911 104.984108,222.936539 106.601357,220.567764 
	C106.924561,220.116333 107.058228,219.941101 107.399521,219.513580 
	C108.166626,218.611130 108.708626,217.947769 109.331192,216.939682 
	C110.026314,215.962967 110.637764,215.337753 111.418839,214.419296 
	C115.430534,209.971329 119.594330,206.174576 124.297981,202.448029 
	C127.070831,200.000443 130.028275,198.396194 132.953735,196.106293 
	C147.829758,187.045395 163.432480,181.269501 180.940857,179.899139 
	C183.802368,179.533417 186.265778,179.549423 189.129852,179.898209 
	C202.083603,180.909805 213.756927,184.722885 225.080444,190.944794 
	C227.178787,192.367950 228.731400,193.898010 230.907410,195.177765 
	C234.286621,197.748306 237.313965,200.205521 240.905273,202.476212 
	C246.465561,208.703354 252.380295,214.102692 258.207458,220.073715 
	C258.768860,220.659927 259.069305,221.013962 259.567200,221.658463 
	C264.543060,227.658707 268.917542,233.683792 273.712860,239.844971 
	C282.305725,252.927460 291.452271,265.236481 297.994781,279.161743 
	C303.480194,290.837036 307.523407,302.896667 308.229462,316.273285 
	C308.188721,317.152527 308.123047,317.648560 307.949890,318.501526 
	C306.897552,327.880341 303.058899,335.375488 295.754456,341.406494 
	C295.317566,341.798004 295.137085,341.946442 294.670349,342.292725 
	C293.794128,342.843384 293.171417,343.134186 292.266144,343.617462 
	C291.368011,344.107361 290.754272,344.408417 289.854919,344.916138 
	C286.165985,347.152252 282.344513,347.274109 278.279755,347.779175 
z"/>
<path fill="#F1CDB3" opacity="1.000000" stroke="none" 
	d="
M238.701050,1.224106 
	C242.030594,1.000000 245.061188,1.000000 248.545898,1.000000 
	C254.371445,1.757437 259.505829,3.157316 264.227722,6.677898 
	C264.729736,6.978494 264.925049,7.107277 265.398987,7.448274 
	C269.090790,11.094719 272.848511,14.208213 275.785278,18.575542 
	C277.533508,21.142967 279.146088,23.374128 280.335815,26.312840 
	C286.480560,39.346851 286.671326,52.864109 286.332886,66.873856 
	C286.295929,67.833687 286.237579,68.374413 286.071289,69.299728 
	C284.684692,77.859367 282.879883,85.881821 279.762970,93.604332 
	C275.806091,103.408066 270.204071,112.072998 262.507263,119.823624 
	C261.614899,120.776581 260.975800,121.469757 260.015564,122.322418 
	C258.565948,123.161682 257.394470,123.802002 256.370178,125.204559 
	C255.928497,125.600670 255.734268,125.744576 255.224472,126.080162 
	C248.228714,129.468750 242.163116,133.961884 234.260452,134.370468 
	C224.938232,134.852493 217.024704,131.710464 209.370117,126.205185 
	C207.281631,124.961632 205.812851,123.575798 204.232239,121.749374 
	C196.462158,112.261406 192.640610,101.324577 189.158630,89.792328 
	C188.582108,87.540764 188.631210,85.628006 188.604126,83.304779 
	C188.254272,67.829712 190.311249,53.191452 196.377319,38.859818 
	C203.477905,23.569479 213.072556,11.123133 228.400299,3.878866 
	C231.620819,2.356765 234.891724,1.533411 238.701050,1.224106 
z"/>
<path fill="#F1CDB3" opacity="1.000000" stroke="none" 
	d="
M360.775146,141.698090 
	C361.000000,148.354401 361.000000,154.708786 361.000000,161.531586 
	C359.786377,169.226837 358.834167,176.521957 355.354309,183.541428 
	C354.339050,186.153168 353.141876,188.268585 351.927063,190.770248 
	C349.714111,193.895844 348.203674,197.051468 345.912231,200.112091 
	C342.856812,203.585129 340.373627,207.108292 336.927979,210.222809 
	C334.860626,212.394592 332.632019,213.849411 330.333466,215.739960 
	C329.908905,216.094986 329.734161,216.231735 329.284973,216.557068 
	C328.052826,217.318665 327.138763,217.952499 326.023499,218.903320 
	C322.718719,220.512253 319.944519,222.468643 316.278381,223.326782 
	C312.559418,224.429276 309.146027,225.215225 305.296417,225.812927 
	C303.913910,226.144424 302.884888,226.224518 301.462708,226.269684 
	C298.000244,225.909607 294.972534,225.327774 291.663086,224.237122 
	C290.595001,223.797928 289.908569,223.444778 288.805176,223.075241 
	C288.193817,222.840576 287.951477,222.737000 287.357300,222.447845 
	C272.311432,213.273849 266.312836,199.563614 265.685638,182.951691 
	C265.214478,170.471573 267.584717,158.518631 272.551819,146.668472 
	C273.622803,144.028992 274.582794,141.759094 275.869995,139.245575 
	C276.758057,138.006546 277.568512,137.153137 278.255402,135.785034 
	C284.419464,124.967812 293.065826,117.107529 303.485291,110.521317 
	C305.262421,109.481049 306.809570,108.784019 308.702148,107.955933 
	C313.246857,106.315056 317.548706,105.191788 322.307526,104.339500 
	C323.150330,104.097664 323.642456,103.999367 324.515991,103.880005 
	C325.396484,103.789009 325.901978,103.768501 326.788818,103.768921 
	C327.930664,103.794136 328.683167,103.898224 329.803772,104.100739 
	C332.816772,104.938026 335.494629,105.548561 338.558594,106.167557 
	C351.283691,114.812027 360.125397,125.511726 360.775146,141.698090 
z"/>
<path fill="#F1CDB3" opacity="1.000000" stroke="none" 
	d="
M1.223832,167.294449 
	C1.000000,159.979050 1.000000,152.958099 1.000000,145.468567 
	C2.282720,135.961945 4.864192,127.505272 12.024215,120.705643 
	C12.674150,120.082466 13.069550,119.749702 13.798439,119.202766 
	C29.594778,108.081795 44.917660,109.615807 60.462845,119.740448 
	C66.015556,124.010704 71.617615,127.665825 75.590492,133.143494 
	C76.405228,134.266800 77.689301,134.744110 79.027603,135.767273 
	C84.525391,145.343216 90.827248,154.141449 93.521896,165.108032 
	C93.775642,165.903381 93.891739,166.363480 94.055435,167.171219 
	C94.256348,168.191925 94.374931,168.873337 94.680649,169.868073 
	C94.903824,170.653885 94.998947,171.112839 95.119476,171.930237 
	C95.274185,173.484177 95.344353,174.690536 95.875214,176.204163 
	C96.108337,177.080643 96.199684,177.596359 96.294525,178.524475 
	C96.517052,183.961304 96.455086,188.992813 96.395401,194.431503 
	C96.334541,195.364716 96.268486,195.888458 96.108734,196.780670 
	C95.851562,197.857391 95.602303,198.542877 95.325188,199.579834 
	C95.152092,200.359283 95.042816,200.798706 94.833344,201.554260 
	C94.550423,202.496292 94.339966,203.114685 94.153168,204.076996 
	C94.021942,204.830307 93.928894,205.258469 93.732864,206.003738 
	C92.953194,208.443878 92.040718,210.472260 90.959190,212.791962 
	C90.341393,214.100357 89.939095,215.145309 89.064758,216.310547 
	C87.666153,217.559448 86.503288,218.571030 85.566803,220.250580 
	C84.497566,221.686111 83.448799,222.664520 82.062347,223.833649 
	C71.820358,232.166595 60.862774,233.330383 49.047508,228.908997 
	C42.169781,226.335297 35.620960,223.189285 29.598568,218.275452 
	C28.470888,217.510529 27.760361,216.831009 26.773373,215.931915 
	C23.056347,212.092026 19.333511,208.732040 16.237892,204.346497 
	C15.875995,203.913803 15.736928,203.736221 15.407145,203.280014 
	C14.198457,201.264709 13.113609,199.572327 11.674793,197.696625 
	C11.332224,197.221725 11.200579,197.024933 10.887573,196.517700 
	C6.020794,187.185181 2.022945,177.940674 1.223832,167.294449 
z"/>
<path fill="#F1CDB3" opacity="1.000000" stroke="none" 
	d="
M141.753601,13.920364 
	C142.405502,14.753192 142.875916,15.316975 143.617767,15.959518 
	C148.184448,17.920124 150.463470,21.651987 152.751648,25.828215 
	C152.911713,26.134090 152.971313,26.058292 152.923615,26.065243 
	C154.457153,27.273066 155.581345,28.791451 156.134125,31.044716 
	C156.160187,31.364529 156.234406,31.675480 156.346542,31.789391 
	C158.739548,32.176502 159.048386,34.252831 159.831909,35.773163 
	C165.268173,46.321659 168.312302,57.593033 169.873627,69.724617 
	C170.110138,70.662476 170.201889,71.210373 170.295288,72.187500 
	C170.558594,79.207825 170.639389,85.797554 169.362854,92.741440 
	C169.316086,93.706841 169.257034,94.250168 169.090271,95.177780 
	C167.332550,102.438805 164.792419,108.972717 161.111267,115.450310 
	C160.283157,116.798035 159.510193,117.736732 158.673141,119.070602 
	C155.480118,122.855324 152.327774,126.170288 148.212799,129.010620 
	C135.930023,136.346573 123.899162,136.835526 111.481003,129.319412 
	C103.975212,125.122017 98.030609,119.626808 92.216873,113.378716 
	C81.263367,99.103493 75.125328,83.343925 73.650780,65.784874 
	C73.524780,64.284431 73.282562,62.810947 72.876419,60.946861 
	C72.496323,57.507507 72.502686,54.468338 72.871445,51.024971 
	C74.202888,43.288502 74.654335,35.789703 77.809547,28.859720 
	C80.239738,23.522116 83.061806,18.502689 87.906929,14.396607 
	C88.237541,14.175505 88.194359,14.135350 88.208298,14.162830 
	C94.157448,9.133796 100.079094,4.158997 108.219749,2.885635 
	C119.158424,1.174605 128.338974,5.431959 137.563446,11.018778 
	C137.902939,11.107323 137.922440,11.047704 137.896301,11.064985 
	C139.218018,11.774532 140.602051,12.414663 141.753601,13.920364 
z"/>

</svg>